<svg width="231" height="306" viewBox="0 0 231 306" fill="none" xmlns="http://www.w3.org/2000/svg">
<path d="M13.54 169.12C15.0905 167.937 16.8624 166.729 18.8804 165.546C22.2766 163.574 25.5005 162.243 28.2323 161.307" stroke="black" stroke-width="2" stroke-miterlimit="10"/>
<path d="M207.295 163.008C209.411 150.289 207.074 140.135 202.078 122.635C197.771 107.526 193.464 93.9454 189.453 82.0161C194.572 82.7555 199.838 82.7802 204.908 81.6957C209.977 80.6358 214.457 77.8507 218.911 75.1888C220.412 74.2768 221.52 72.8719 222.553 71.467C225.334 67.7206 228.041 63.7277 228.903 59.1433C229.813 54.2138 228.46 49.1611 226.885 44.4041C226.491 43.221 225.802 42.1366 225.162 41.0521C224.153 39.3267 223.119 37.6261 222.11 35.9008C221.987 35.6789 221.84 35.4325 221.79 35.186C221.667 34.5944 222.036 34.0029 222.283 33.4607C223.07 31.8339 223.095 29.9361 222.947 28.1368C222.356 20.8658 219.108 13.866 213.94 8.73929C213.595 8.39423 213.251 7.97522 212.881 7.67945C207.295 3.19362 199.518 1.61619 192.652 3.53868C191.028 3.98234 189.428 4.62317 187.755 4.59852C186.623 4.59852 185.515 4.25346 184.408 3.9084C182.562 3.34151 180.741 2.79926 178.895 2.23237C177.566 1.83801 176.237 1.44365 174.884 1.22183C173.505 1.02465 172.127 1 170.749 1C168.78 1 166.762 1.64083 164.793 1.64083C162.948 1.64083 161.126 2.15843 159.355 2.67603C155.318 3.8591 151.258 5.04218 147.419 6.74285C145.351 7.67945 143.358 8.73929 141.389 9.82378C137.082 12.1899 134.892 13.3237 132.825 14.8026C131.422 15.8131 130.561 16.5525 128.887 17.4891C128.297 17.8095 127.288 18.3271 125.786 19.2144C125.786 19.2144 125.073 19.6335 124.433 20.0525C123.178 20.8658 121.923 21.8271 119.289 23.8482C114.441 27.5946 114.613 27.3481 113.014 28.6298C106.935 33.4607 101.669 38.7845 98.1247 42.3337C92.3413 48.1752 88.6498 51.9709 84.1462 57.837C81.5867 61.189 79.0765 64.7382 76.837 68.2875C74.8682 71.3931 72.8994 74.4986 70.9552 77.6042C69.6508 79.6746 68.3219 81.745 67.0914 83.8893C65.4425 86.7484 63.6706 89.78 62.2678 92.787C60.7666 96.0158 59.2654 99.22 57.7642 102.449C56.9274 104.248 56.0661 106.072 55.3524 107.921C53.2605 113.17 51.5624 118.642 49.8889 124.04C48.1416 129.635 46.4189 135.279 45.3607 141.047C44.9423 143.437 44.5485 144.596 44.3517 145.631C41.8661 159.015 45.1146 171.24 44.9915 171.264C44.8931 171.264 43.8595 165.3 43.638 165.324C43.4903 165.324 43.9087 167.74 43.3673 167.888C42.5305 168.159 41.5215 163.081 37.4362 161.011C36.8702 160.715 34.7537 159.655 32.3173 160.124C30.7177 160.444 26.5832 161.898 25.1804 162.243C25.0574 162.268 24.7867 162.342 24.5159 162.243C23.8761 161.997 23.7038 161.085 23.6546 160.789C22.744 156.353 20.9229 152.138 19.1263 147.973C18.6341 146.814 18.1173 145.656 17.4036 144.596C16.5915 143.413 15.5579 142.402 14.4996 141.416C13.7367 140.702 12.9738 140.011 12.0386 139.543C9.82372 138.434 7.14123 138.902 4.85249 139.814C3.91731 140.184 3.32666 140.43 2.71141 141.047C0.767216 142.945 1.01332 145.976 1.13637 147.406C1.28403 149.131 1.75162 150.684 2.51453 152.409C4.75405 157.314 9.97139 163.796 12.6785 166.507C13.1707 167 13.7367 167.592 13.6875 168.307C13.6383 169.095 12.9 169.613 12.2355 170.057C9.60223 171.881 7.43655 174.395 6.00916 177.278C4.92632 179.472 6.13221 183.563 7.21506 185.634C10.9066 192.708 15.0411 199.831 19.1509 206.658C19.7662 207.669 20.3814 208.704 20.9967 209.714C21.169 210.01 21.3659 210.331 21.4151 210.676C21.5381 211.686 20.5045 212.524 20.16 212.845C20.16 212.845 18.2404 214.545 16.247 217.947C14.6965 220.584 14.6965 223.344 14.6965 224.429C14.6965 226.425 14.9426 227.165 15.361 229.556C15.6563 231.207 15.8286 231.675 16.0009 232.119C16.5669 233.401 17.6005 234.732 17.6005 234.732C17.6005 234.732 19.8646 237.369 22.1042 238.872C24.1468 240.253 26.1156 240.672 27.3953 240.918C33.8924 242.224 37.7562 238.996 39.725 240.918C40.734 241.904 40.6355 243.629 40.2418 245.626C39.2082 250.777 38.1253 255.928 37.4362 261.129C36.5749 267.685 36.5995 275.104 41.1277 279.91C41.6938 280.502 42.8012 281.66 48.1662 284.421C54.1711 287.502 59.5607 289.547 63.7198 290.928C65.1964 291.79 67.3621 293.171 69.7493 295.167C70.9552 296.178 71.7673 296.991 71.9888 297.188C74.9912 300.047 83.1618 303.35 93.3996 304.361C93.3996 304.361 105.36 305.297 115.426 302.192C119.659 300.885 122.759 298.174 122.759 298.174C124.753 296.769 125.196 296.153 126.5 295.586C128.297 294.797 131.127 294.329 135.532 296.005C141.955 301.206 148.009 303.103 151.406 303.892C157.164 305.199 162.259 304.582 172.398 303.301C174.687 303.005 177 302.66 179.732 301.378C183.595 299.579 186.13 296.917 187.558 295.142C188.198 294.452 189.207 293.417 190.56 292.333C196.565 287.576 199.937 289.252 207.738 285.185C209.141 284.445 215.466 280.995 218.714 275.203C218.862 274.931 218.985 274.685 219.083 274.488C220.486 271.629 220.707 268.72 221.101 263.027C221.347 259.404 221.495 254.449 220.461 241.263C220.166 237.541 219.822 233.573 219.379 229.408C219.034 226.549 218.714 223.714 218.37 220.855L214.924 204.785L210.913 191.007L206.901 181.247C205.941 179.152 204.982 177.032 204.022 174.937C205.055 172.176 206.434 168.036 207.295 162.884V163.008Z" fill="url(#paint0_linear_2769_1810)" stroke="black" stroke-width="2" stroke-miterlimit="10"/>
<path d="M51 121C55.9958 117.771 71.8653 110.509 77.4026 108.365C81.734 106.689 85.9423 104.865 90.4213 103.632C93.5468 102.77 96.7215 102.178 99.8962 101.587C105.458 100.551 111.02 99.5162 116.656 99.0233C127.779 98.062 138.977 99.2944 150.101 100.502C158.099 101.389 165.777 104.372 173.456 106.738C175.326 107.305 177.196 107.872 179.042 108.513C185.293 110.681 191.273 113.59 197.155 116.671C198.878 117.583 200.207 119.16 201.634 120.491" stroke="black" stroke-width="2" stroke-miterlimit="10"/>
<path d="M43.5 153C49.5787 147.306 56.1648 143.069 60.127 141.023C62.6618 139.717 65.0736 138.558 70.0449 136.537C74.1055 134.886 78.1662 133.259 82.2269 131.608C87.2965 129.562 92.7354 127.639 98.1004 126.506C101.226 125.84 104.401 125.347 107.551 124.854C127.657 121.724 148.206 124.066 167.968 128.847C170.651 129.488 173.26 130.301 176.779 131.608C190.831 136.759 201.798 144.652 208 150" stroke="black" stroke-width="2" stroke-miterlimit="10"/>
<path d="M136.219 153.528C136.697 155.188 136.793 156.966 136.64 158.705C136.563 159.613 136.41 160.542 136.104 161.392C135.224 163.881 133.099 165.778 130.707 166.687C128.314 167.595 125.654 167.655 123.109 167.22C122.477 167.121 121.846 166.983 121.252 166.706C120.601 166.41 120.027 165.975 119.491 165.501C116.946 163.209 115.338 159.85 115.147 156.373C115.09 155.444 115.147 154.476 115.357 153.567C115.912 151.216 117.616 149.28 119.625 148.055C122.611 146.237 126.573 145.151 129.865 146.514C132.831 147.739 135.281 150.327 136.219 153.488V153.528Z" stroke="black" stroke-width="2" stroke-miterlimit="10"/>
<path d="M189.871 138.09C188.862 151.128 184.949 160.297 182.266 165.424C179.633 170.452 177.492 173.533 174.859 175.924C171.635 178.857 168.362 180.434 166.885 181.1C160.856 183.761 158.271 182.504 152.045 185.191C148.723 186.621 147.443 187.853 145.302 189.135C135.507 195.001 120.052 194.606 109.051 189.406C102.087 186.128 99.8718 182.307 92.9071 181.74C90.766 181.568 87.8867 181.666 84.0967 180.237C80.5775 178.906 77.9196 176.86 76.9598 176.096C74.8187 174.42 73.4405 172.843 72.9237 172.251C71.7917 170.92 70.8073 169.367 69.8475 167.815C66.0329 161.727 64.6794 155.491 63.695 151.276C63.5473 150.611 63.3996 148.885 62.9813 145.435C62.7106 143.29 62.5137 141.516 62.3906 140.382" stroke="black" stroke-width="2" stroke-miterlimit="10"/>
<path d="M208 150C208.295 162.841 204.538 176.639 197.377 187.287C189.772 198.624 177.886 206.216 166.319 213.462C146.016 226.229 119.068 224.8 96.008 218.219C90.5938 216.666 84.9581 215.187 80.036 212.476C74.1788 209.247 68.3709 205.92 62.6367 202.469" stroke="black" stroke-width="2" stroke-miterlimit="10"/>
<path d="M42.5 167L56.313 191.278C61.678 200.718 67.0183 210.158 72.6787 219.425C73.8353 221.323 75.0166 223.245 75.5334 225.39C76.0502 227.534 75.7795 229.999 74.3275 231.65C71.0298 235.347 68.4211 236.087 59.2169 240.992C51.1448 245.305 48.9545 248.016 45.4107 246.981C42.6544 246.168 41.4352 243.849 40.5 242" stroke="black" stroke-width="2" stroke-miterlimit="10"/>
<path d="M58 241.669C60.6579 249.556 63.2666 255.619 65.2108 259.809C66.1459 261.83 67.6225 264.32 70.4281 266.341C72.6922 267.992 75.8177 268.707 78.3525 267.524C81.2565 266.168 82.6839 262.693 82.5116 259.489C82.4624 258.552 82.3394 257.714 82.1425 256.876C81.4288 253.82 80.0506 251.7 79.2631 250.542C76.999 247.165 73.6028 242.113 69.1976 236" stroke="black" stroke-width="2" stroke-miterlimit="10"/>
<path d="M155.663 235.916C154.457 232.022 154.998 227.561 157.115 224.061C158.936 221.005 163.193 217.061 166.417 215.533C170.872 213.413 174.342 218.343 177.295 220.98C180.937 224.258 184.826 227.314 188 231.061C189.403 232.737 192.209 235.719 192.061 238.11C191.889 240.575 188.443 242.596 186.598 243.803C181.429 247.156 175.006 248.782 168.977 247.501C162.947 246.219 157.508 241.807 155.687 235.916H155.663Z" stroke="black" stroke-width="2" stroke-miterlimit="10"/>
<path d="M214 201.5C211.047 211.285 205.941 223.026 195.901 234.98C193.538 237.789 192.387 239.257 190 241.5" stroke="black" stroke-width="2" stroke-miterlimit="10"/>
<path d="M156.589 37.3436C156.16 36.9953 155.53 37.0605 155.182 37.4892C154.834 37.9178 154.899 38.5476 155.327 38.8959L156.589 37.3436ZM166.491 46.6724L167.122 45.8963L167.122 45.8962L166.491 46.6724ZM173.85 53.7708L174.626 53.1412L174.623 53.1371L173.85 53.7708ZM179.608 63.0629L180.5 62.6111L180.498 62.6073L179.608 63.0629ZM155.327 38.8959C157.087 40.3256 158.841 41.7491 160.594 43.1725C162.348 44.5959 164.101 46.0191 165.861 47.4485L167.122 45.8962C165.362 44.4665 163.608 43.043 161.855 41.6197C160.101 40.1963 158.348 38.773 156.589 37.3436L155.327 38.8959ZM165.861 47.4485C171.008 51.6314 172.314 53.4751 173.076 54.4046L174.623 53.1371C173.81 52.1441 172.409 50.1921 167.122 45.8963L165.861 47.4485ZM173.073 54.4005C174.716 56.4274 176.255 58.7061 178.718 63.5186L180.498 62.6073C177.991 57.7087 176.38 55.3043 174.626 53.1412L173.073 54.4005ZM178.716 63.5148C180.429 66.8972 182.717 71.2552 184.663 75.0073C186.634 78.8064 188.209 81.9004 188.563 82.8494L190.437 82.1506C190.028 81.0539 188.368 77.806 186.439 74.0864C184.485 70.3197 182.208 65.9821 180.5 62.6111L178.716 63.5148Z" fill="black"/>
<path d="M151.75 151.177C154.468 151.177 156.672 147.867 156.672 143.783C156.672 139.699 154.468 136.389 151.75 136.389C149.032 136.389 146.828 139.699 146.828 143.783C146.828 147.867 149.032 151.177 151.75 151.177Z" fill="black" stroke="black" stroke-width="2" stroke-miterlimit="10"/>
<path d="M98.174 153.173C100.892 153.173 103.096 149.742 103.096 145.508C103.096 141.275 100.892 137.843 98.174 137.843C95.4556 137.843 93.252 141.275 93.252 145.508C93.252 149.742 95.4556 153.173 98.174 153.173Z" fill="black" stroke="black" stroke-width="2" stroke-miterlimit="10"/>
<path d="M117.198 177.821C118.207 178.61 122.982 182.134 129.676 181.395C135.311 180.779 138.88 177.525 139.938 176.49" stroke="black" stroke-width="2" stroke-miterlimit="10" stroke-linecap="round"/>
<path d="M38.298 240.105C44.8689 237.566 49.2495 231.38 49.3479 224.651C49.471 215.926 42.3833 210.38 38.4456 208.704C38.3472 208.655 38.1749 208.581 37.9781 208.507C36.6983 207.99 30.6196 205.771 24.9347 208.704C23.8273 209.271 21.8831 210.504 20.1357 212.919" stroke="black" stroke-width="2" stroke-miterlimit="10"/>
<defs>
<linearGradient id="paint0_linear_2769_1810" x1="115.126" y1="1" x2="115.126" y2="304.618" gradientUnits="userSpaceOnUse">
<stop stop-color="#F5DD07"/>
<stop offset="1" stop-color="white"/>
</linearGradient>
</defs>
</svg>
